<svg xmlns="http://www.w3.org/2000/svg" xmlns:xlink="http://www.w3.org/1999/xlink" viewBox="0,0,256,256" width="256px" height="256px" fill-rule="nonzero"><g fill="#014687" fill-rule="nonzero" stroke="none" stroke-width="1" stroke-linecap="butt" stroke-linejoin="miter" stroke-miterlimit="10" stroke-dasharray="" stroke-dashoffset="0" font-family="none" font-weight="none" font-size="none" text-anchor="none" style="mix-blend-mode: normal"><g transform="scale(8,8)"><path d="M16,2.88281l-13,6.5v13.23437l13,6.5l13,-6.5v-13.23437zM16,5.11719l11,5.5v10.76562l-11,5.5l-11,-5.5v-10.76562zM13,10c-3.30078,0 -6,2.69922 -6,6c0,3.30078 2.69922,6 6,6c1.5,0 2.90234,-0.60156 3.90234,-1.5l-1.70312,-1.19922c-0.60156,0.39844 -1.39844,0.69922 -2.19922,0.69922c-2.19922,0 -4,-1.80078 -4,-4c0,-2.19922 1.80078,-4 4,-4c0.80078,0 1.59766,0.30078 2.19922,0.69922l1.70313,-1.19922c-1,-0.89844 -2.40234,-1.5 -3.90234,-1.5zM18,12v1h-1v2h1v2h-1v2h1v1h2v-1h2v1h2v-1h1v-2h-1v-2h1v-2h-1v-1h-2v1h-2v-1zM20,15h2v2h-2z"></path></g></g></svg>